<svg width="437" height="259" viewBox="0 0 437 259" fill="none" xmlns="http://www.w3.org/2000/svg">
<rect width="437" height="259" rx="8" fill="#F7F9EE"/>
<path d="M218 173H437V251C437 255.418 433.418 259 429 259H218V173Z" fill="white"/>
<path d="M231.224 241.468L230.756 243.688H232.472V244.432H230.6L230.048 247H229.244L229.796 244.432H227.132L226.58 247H225.776L226.328 244.432H224.42V243.688H226.484L226.952 241.468H225.08V240.724H227.12L227.672 238.12H228.476L227.924 240.724H230.588L231.14 238.12H231.944L231.392 240.724H233.132V241.468H231.224ZM230.42 241.468H227.756L227.288 243.688H229.952L230.42 241.468ZM239.234 238.612V239.308H235.538V242.44H238.658V243.136H235.538V247H234.698V238.612H239.234ZM245.152 238.612V239.308H241.456V242.44H244.576V243.136H241.456V247H240.616V238.612H245.152ZM251.07 238.612V239.308H247.374V242.44H250.494V243.136H247.374V247H246.534V238.612H251.07ZM256.988 238.612V239.308H253.292V242.44H256.412V243.136H253.292V247H252.452V238.612H256.988ZM262.906 238.612V239.308H259.21V242.44H262.33V243.136H259.21V247H258.37V238.612H262.906ZM268.824 238.612V239.308H265.128V242.44H268.248V243.136H265.128V247H264.288V238.612H268.824Z" fill="#52682D"/>
<rect x="218" y="86" width="218.5" height="86.3" fill="#F7F9EE"/>
<path d="M231.224 155.468L230.756 157.688H232.472V158.432H230.6L230.048 161H229.244L229.796 158.432H227.132L226.58 161H225.776L226.328 158.432H224.42V157.688H226.484L226.952 155.468H225.08V154.724H227.12L227.672 152.12H228.476L227.924 154.724H230.588L231.14 152.12H231.944L231.392 154.724H233.132V155.468H231.224ZM230.42 155.468H227.756L227.288 157.688H229.952L230.42 155.468ZM239.234 152.612V153.308H235.538V156.44H238.658V157.136H235.538V161H234.698V152.612H239.234ZM245.584 153.056L242.236 161H241.384L244.768 153.128H239.968V152.408H245.584V153.056ZM251.551 152.612V153.308H247.855V156.44H250.975V157.136H247.855V161H247.015V152.612H251.551ZM253.869 158.708C253.957 159.228 254.157 159.628 254.469 159.908C254.781 160.188 255.209 160.328 255.753 160.328C256.505 160.328 257.061 160.036 257.421 159.452C257.789 158.86 257.957 157.884 257.925 156.524C257.773 156.964 257.481 157.312 257.049 157.568C256.625 157.816 256.137 157.94 255.585 157.94C254.745 157.94 254.069 157.688 253.557 157.184C253.053 156.68 252.801 155.98 252.801 155.084C252.801 154.548 252.905 154.064 253.113 153.632C253.321 153.2 253.637 152.86 254.061 152.612C254.485 152.364 255.005 152.24 255.621 152.24C256.757 152.24 257.549 152.612 257.997 153.356C258.445 154.092 258.669 155.152 258.669 156.536C258.669 158.032 258.445 159.156 257.997 159.908C257.557 160.66 256.797 161.036 255.717 161.036C254.925 161.036 254.309 160.824 253.869 160.4C253.429 159.968 253.169 159.404 253.089 158.708H253.869ZM255.717 157.22C256.093 157.22 256.437 157.144 256.749 156.992C257.069 156.832 257.325 156.6 257.517 156.296C257.709 155.992 257.805 155.628 257.805 155.204C257.805 154.548 257.617 154.008 257.241 153.584C256.873 153.16 256.341 152.948 255.645 152.948C255.029 152.948 254.533 153.14 254.157 153.524C253.789 153.908 253.605 154.42 253.605 155.06C253.605 155.732 253.789 156.26 254.157 156.644C254.525 157.028 255.045 157.22 255.717 157.22ZM261.273 153.296V156.428H264.453V157.124H261.273V160.304H264.813V161H260.433V152.6H264.813V153.296H261.273ZM267.308 153.296V156.428H270.488V157.124H267.308V160.304H270.848V161H266.468V152.6H270.848V153.296H267.308Z" fill="#52682D"/>
<path d="M218 0H429C433.418 0 437 3.58172 437 8V86H218V0Z" fill="#52682D"/>
<path d="M231.224 68.468L230.756 70.688H232.472V71.432H230.6L230.048 74H229.244L229.796 71.432H227.132L226.58 74H225.776L226.328 71.432H224.42V70.688H226.484L226.952 68.468H225.08V67.724H227.12L227.672 65.12H228.476L227.924 67.724H230.588L231.14 65.12H231.944L231.392 67.724H233.132V68.468H231.224ZM230.42 68.468H227.756L227.288 70.688H229.952L230.42 68.468ZM239.942 66.116H235.55V69.188C235.75 68.908 236.042 68.68 236.426 68.504C236.81 68.32 237.226 68.228 237.674 68.228C238.33 68.228 238.866 68.364 239.282 68.636C239.698 68.9 239.998 69.248 240.182 69.68C240.366 70.104 240.458 70.56 240.458 71.048C240.458 71.608 240.35 72.116 240.134 72.572C239.926 73.02 239.602 73.376 239.162 73.64C238.73 73.904 238.19 74.036 237.542 74.036C236.718 74.036 236.05 73.824 235.538 73.4C235.026 72.968 234.714 72.388 234.602 71.66H235.43C235.534 72.188 235.774 72.596 236.15 72.884C236.526 73.172 236.99 73.316 237.542 73.316C238.238 73.316 238.762 73.112 239.114 72.704C239.474 72.288 239.654 71.74 239.654 71.06C239.654 70.396 239.474 69.88 239.114 69.512C238.754 69.136 238.238 68.948 237.566 68.948C237.102 68.948 236.694 69.056 236.342 69.272C235.99 69.488 235.73 69.78 235.562 70.148H234.77V65.384H239.942V66.116ZM241.757 73.34C243.229 72.236 244.365 71.248 245.165 70.376C245.973 69.496 246.377 68.636 246.377 67.796C246.377 67.244 246.237 66.804 245.957 66.476C245.685 66.14 245.237 65.972 244.613 65.972C244.005 65.972 243.533 66.164 243.197 66.548C242.869 66.924 242.685 67.428 242.645 68.06H241.829C241.877 67.172 242.149 66.484 242.645 65.996C243.149 65.5 243.805 65.252 244.613 65.252C245.389 65.252 246.017 65.472 246.497 65.912C246.977 66.344 247.217 66.96 247.217 67.76C247.217 68.728 246.813 69.668 246.005 70.58C245.205 71.484 244.217 72.368 243.041 73.232H247.481V73.94H241.757V73.34ZM253.736 67.496C253.56 66.456 252.956 65.936 251.924 65.936C251.14 65.936 250.552 66.24 250.16 66.848C249.768 67.456 249.588 68.452 249.62 69.836C249.78 69.356 250.084 68.98 250.532 68.708C250.988 68.428 251.508 68.288 252.092 68.288C252.932 68.288 253.596 68.548 254.084 69.068C254.58 69.58 254.828 70.288 254.828 71.192C254.828 71.72 254.724 72.2 254.516 72.632C254.316 73.056 254.004 73.396 253.58 73.652C253.164 73.908 252.644 74.036 252.02 74.036C250.828 74.036 250.004 73.656 249.548 72.896C249.1 72.136 248.876 71.06 248.876 69.668C248.876 66.708 249.892 65.228 251.924 65.228C252.692 65.228 253.296 65.44 253.736 65.864C254.176 66.28 254.436 66.824 254.516 67.496H253.736ZM251.936 69.008C251.56 69.008 251.204 69.084 250.868 69.236C250.532 69.388 250.256 69.62 250.04 69.932C249.832 70.236 249.728 70.612 249.728 71.06C249.728 71.708 249.92 72.248 250.304 72.68C250.688 73.112 251.248 73.328 251.984 73.328C252.6 73.328 253.092 73.14 253.46 72.764C253.828 72.388 254.012 71.876 254.012 71.228C254.012 70.532 253.832 69.988 253.472 69.596C253.112 69.204 252.6 69.008 251.936 69.008ZM258.007 69.536C257.511 69.376 257.131 69.124 256.867 68.78C256.611 68.436 256.483 68.02 256.483 67.532C256.483 67.1 256.591 66.716 256.807 66.38C257.031 66.036 257.355 65.768 257.779 65.576C258.203 65.376 258.711 65.276 259.303 65.276C259.895 65.276 260.403 65.376 260.827 65.576C261.251 65.768 261.571 66.036 261.787 66.38C262.011 66.716 262.123 67.1 262.123 67.532C262.123 68.012 261.991 68.428 261.727 68.78C261.471 69.132 261.095 69.384 260.599 69.536C261.143 69.672 261.571 69.932 261.883 70.316C262.195 70.7 262.351 71.168 262.351 71.72C262.351 72.232 262.223 72.68 261.967 73.064C261.719 73.44 261.363 73.732 260.899 73.94C260.443 74.148 259.911 74.252 259.303 74.252C258.695 74.252 258.159 74.148 257.695 73.94C257.239 73.732 256.883 73.44 256.627 73.064C256.379 72.68 256.255 72.232 256.255 71.72C256.255 71.168 256.411 70.7 256.723 70.316C257.035 69.932 257.463 69.672 258.007 69.536ZM261.307 67.628C261.307 67.1 261.127 66.692 260.767 66.404C260.407 66.116 259.919 65.972 259.303 65.972C258.687 65.972 258.199 66.116 257.839 66.404C257.479 66.684 257.299 67.092 257.299 67.628C257.299 68.124 257.483 68.52 257.851 68.816C258.219 69.112 258.703 69.26 259.303 69.26C259.903 69.26 260.387 69.112 260.755 68.816C261.123 68.52 261.307 68.124 261.307 67.628ZM259.303 69.908C258.647 69.908 258.111 70.056 257.695 70.352C257.279 70.648 257.071 71.096 257.071 71.696C257.071 72.272 257.271 72.724 257.671 73.052C258.071 73.38 258.615 73.544 259.303 73.544C259.983 73.544 260.523 73.38 260.923 73.052C261.323 72.716 261.523 72.264 261.523 71.696C261.523 71.104 261.315 70.66 260.899 70.364C260.491 70.06 259.959 69.908 259.303 69.908ZM263.659 73.34C265.131 72.236 266.267 71.248 267.067 70.376C267.875 69.496 268.279 68.636 268.279 67.796C268.279 67.244 268.139 66.804 267.859 66.476C267.587 66.14 267.139 65.972 266.515 65.972C265.907 65.972 265.435 66.164 265.099 66.548C264.771 66.924 264.587 67.428 264.547 68.06H263.731C263.779 67.172 264.051 66.484 264.547 65.996C265.051 65.5 265.707 65.252 266.515 65.252C267.291 65.252 267.919 65.472 268.399 65.912C268.879 66.344 269.119 66.96 269.119 67.76C269.119 68.728 268.715 69.668 267.907 70.58C267.107 71.484 266.119 72.368 264.943 73.232H269.383V73.94H263.659V73.34ZM273.358 65.612C274.286 65.612 275.082 65.78 275.746 66.116C276.41 66.452 276.918 66.936 277.27 67.568C277.622 68.2 277.798 68.952 277.798 69.824C277.798 70.688 277.622 71.436 277.27 72.068C276.918 72.692 276.41 73.172 275.746 73.508C275.082 73.836 274.286 74 273.358 74H270.874V65.612H273.358ZM273.358 73.304C274.526 73.304 275.414 73 276.022 72.392C276.638 71.776 276.946 70.92 276.946 69.824C276.946 68.72 276.638 67.86 276.022 67.244C275.414 66.62 274.526 66.308 273.358 66.308H271.714V73.304H273.358Z" fill="#F7F9EE"/>
<path d="M0 8C0 3.58172 3.58172 0 8 0H218V259H8C3.58173 259 0 255.418 0 251V8Z" fill="#7C9D45"/>
<path d="M12.224 241.468L11.756 243.688H13.472V244.432H11.6L11.048 247H10.244L10.796 244.432H8.132L7.58 247H6.776L7.328 244.432H5.42V243.688H7.484L7.952 241.468H6.08V240.724H8.12L8.672 238.12H9.476L8.924 240.724H11.588L12.14 238.12H12.944L12.392 240.724H14.132V241.468H12.224ZM11.42 241.468H8.756L8.288 243.688H10.952L11.42 241.468ZM20.6663 239.056L17.3183 247H16.4663L19.8503 239.128H15.0503V238.408H20.6663V239.056ZM21.7127 242.8C21.7127 241.976 21.8927 241.24 22.2527 240.592C22.6127 239.936 23.1047 239.428 23.7287 239.068C24.3527 238.7 25.0487 238.516 25.8167 238.516C26.7527 238.516 27.5527 238.74 28.2167 239.188C28.8887 239.628 29.3767 240.252 29.6807 241.06H28.6967C28.4567 240.492 28.0887 240.048 27.5927 239.728C27.1047 239.408 26.5127 239.248 25.8167 239.248C25.2007 239.248 24.6447 239.392 24.1487 239.68C23.6607 239.968 23.2767 240.384 22.9967 240.928C22.7167 241.464 22.5767 242.088 22.5767 242.8C22.5767 243.512 22.7167 244.136 22.9967 244.672C23.2767 245.208 23.6607 245.62 24.1487 245.908C24.6447 246.196 25.2007 246.34 25.8167 246.34C26.5127 246.34 27.1047 246.184 27.5927 245.872C28.0887 245.552 28.4567 245.112 28.6967 244.552H29.6807C29.3767 245.352 28.8887 245.972 28.2167 246.412C27.5447 246.852 26.7447 247.072 25.8167 247.072C25.0487 247.072 24.3527 246.892 23.7287 246.532C23.1047 246.164 22.6127 245.656 22.2527 245.008C21.8927 244.36 21.7127 243.624 21.7127 242.8ZM32.2905 244.708C32.3785 245.228 32.5785 245.628 32.8905 245.908C33.2025 246.188 33.6305 246.328 34.1745 246.328C34.9265 246.328 35.4825 246.036 35.8425 245.452C36.2105 244.86 36.3785 243.884 36.3465 242.524C36.1945 242.964 35.9025 243.312 35.4705 243.568C35.0465 243.816 34.5585 243.94 34.0065 243.94C33.1665 243.94 32.4905 243.688 31.9785 243.184C31.4745 242.68 31.2225 241.98 31.2225 241.084C31.2225 240.548 31.3265 240.064 31.5345 239.632C31.7425 239.2 32.0585 238.86 32.4825 238.612C32.9065 238.364 33.4265 238.24 34.0425 238.24C35.1785 238.24 35.9705 238.612 36.4185 239.356C36.8665 240.092 37.0905 241.152 37.0905 242.536C37.0905 244.032 36.8665 245.156 36.4185 245.908C35.9785 246.66 35.2185 247.036 34.1385 247.036C33.3465 247.036 32.7305 246.824 32.2905 246.4C31.8505 245.968 31.5905 245.404 31.5105 244.708H32.2905ZM34.1385 243.22C34.5145 243.22 34.8585 243.144 35.1705 242.992C35.4905 242.832 35.7465 242.6 35.9385 242.296C36.1305 241.992 36.2265 241.628 36.2265 241.204C36.2265 240.548 36.0385 240.008 35.6625 239.584C35.2945 239.16 34.7625 238.948 34.0665 238.948C33.4505 238.948 32.9545 239.14 32.5785 239.524C32.2105 239.908 32.0265 240.42 32.0265 241.06C32.0265 241.732 32.2105 242.26 32.5785 242.644C32.9465 243.028 33.4665 243.22 34.1385 243.22ZM41.3385 238.612C42.2665 238.612 43.0625 238.78 43.7265 239.116C44.3905 239.452 44.8985 239.936 45.2505 240.568C45.6025 241.2 45.7785 241.952 45.7785 242.824C45.7785 243.688 45.6025 244.436 45.2505 245.068C44.8985 245.692 44.3905 246.172 43.7265 246.508C43.0625 246.836 42.2665 247 41.3385 247H38.8545V238.612H41.3385ZM41.3385 246.304C42.5065 246.304 43.3945 246 44.0025 245.392C44.6185 244.776 44.9265 243.92 44.9265 242.824C44.9265 241.72 44.6185 240.86 44.0025 240.244C43.3945 239.62 42.5065 239.308 41.3385 239.308H39.6945V246.304H41.3385ZM46.7752 244.96V244.324L51.1432 238.444H52.1392V244.228H53.4232V244.96H52.1392V247H51.3112V244.96H46.7752ZM51.3472 239.368L47.7472 244.228H51.3472V239.368ZM59.9306 239.116H55.5386V242.188C55.7386 241.908 56.0306 241.68 56.4146 241.504C56.7986 241.32 57.2146 241.228 57.6626 241.228C58.3186 241.228 58.8546 241.364 59.2706 241.636C59.6866 241.9 59.9866 242.248 60.1706 242.68C60.3546 243.104 60.4466 243.56 60.4466 244.048C60.4466 244.608 60.3386 245.116 60.1226 245.572C59.9146 246.02 59.5906 246.376 59.1506 246.64C58.7186 246.904 58.1786 247.036 57.5306 247.036C56.7066 247.036 56.0386 246.824 55.5266 246.4C55.0146 245.968 54.7026 245.388 54.5906 244.66H55.4186C55.5226 245.188 55.7626 245.596 56.1386 245.884C56.5146 246.172 56.9786 246.316 57.5306 246.316C58.2266 246.316 58.7506 246.112 59.1026 245.704C59.4626 245.288 59.6426 244.74 59.6426 244.06C59.6426 243.396 59.4626 242.88 59.1026 242.512C58.7426 242.136 58.2266 241.948 57.5546 241.948C57.0906 241.948 56.6826 242.056 56.3306 242.272C55.9786 242.488 55.7186 242.78 55.5506 243.148H54.7586V238.384H59.9306V239.116Z" fill="#F7F9EE"/>
</svg>
